<?xml version="1.0" standalone="no"?>
<!DOCTYPE svg PUBLIC "-//W3C//DTD SVG 20010904//EN"
 "http://www.w3.org/TR/2001/REC-SVG-20010904/DTD/svg10.dtd">
<svg version="1.0"
    xmlns="http://www.w3.org/2000/svg" width="512.000000pt" height="512.000000pt" viewBox="0 0 512.000000 512.000000" preserveAspectRatio="xMidYMid meet">
    <metadata>
Created by potrace 1.11, written by Peter Selinger 2001-2013
    </metadata>
    <g transform="translate(0.000000,512.000000) scale(0.100000,-0.100000)" fill="#000000" stroke="none">
        <path d="M178 5108 c-52 -14 -126 -83 -154 -143 l-24 -50 3 -2365 2 -2365 22
-40 c32 -58 69 -94 127 -121 l51 -24 2356 0 2356 0 60 30 c62 31 98 71 128
142 13 33 15 288 12 2400 l-2 2363 -21 40 c-32 60 -70 96 -134 128 -32 16
-4723 21 -4782 5z"/>
    </g>
</svg>
